# xmcd
#
# Track frame offsets:
#	150
#	14193
#	31743
#	48863
#	63903
#	76403
#	89063
#	104439
#	117651
#	128837
#	150370
#	166695
#
# Disc length: 2544 seconds
#
# Revision: 0
# Processed by: cddbd v1.5.2PL0 Copyright (c) Steve Scherf et al.
# Submitted via: EasyCDDAExtractor 2010.4.0.0
#
DISCID=9409ee0c
DTITLE=Unsung National Heroes - It was like that when I found it
DYEAR=2011
DGENRE=
TTITLE0=Your Hope, Your Glory
TTITLE1=Religion's New Tricks
TTITLE2=Deceivers
TTITLE3=What Neil and Sarah Said
TTITLE4=Michele with one L
TTITLE5=Something Left to Do
TTITLE6=Tracey Emin's Bed
TTITLE7=Orange Tree
TTITLE8=Oh Brother
TTITLE9=Little Heart Shout
TTITLE10=Showboating Sally
TTITLE11=Lucky Streak
EXTD=
EXTT0=
EXTT1=
EXTT2=
EXTT3=
EXTT4=
EXTT5=
EXTT6=
EXTT7=
EXTT8=
EXTT9=
EXTT10=
EXTT11=
PLAYORDER=
